<?xml version="1.0" encoding="utf-8"?>
<!-- Generator: Adobe Illustrator 26.2.1, SVG Export Plug-In . SVG Version: 6.00 Build 0)  -->
<svg version="1.1" id="Layer_1" xmlns="http://www.w3.org/2000/svg" xmlns:xlink="http://www.w3.org/1999/xlink" x="0px" y="0px"
	 viewBox="0 0 448 396" style="enable-background:new 0 0 448 396;" xml:space="preserve">
<style type="text/css">
	.st0{fill:#FFFFFF;}
</style>
<path class="st0" d="M0,39.1c0-17.7,14.3-32,32-32h384c17.7,0,32,14.3,32,32s-14.3,32-32,32H32C14.3,71.1,0,56.8,0,39.1z M0,199.1
	c0-17.7,14.3-32,32-32h384c17.7,0,32,14.3,32,32s-14.3,32-32,32H32C14.3,231.1,0,216.8,0,199.1z M416,391.1H32
	c-17.7,0-32-14.3-32-32s14.3-32,32-32h384c17.7,0,32,14.3,32,32S433.7,391.1,416,391.1z"/>
</svg>
